# Blender v2.78 (sub 0) OBJ File: 'cube.blend'
# www.blender.org
mtllib cube.mtl
o Cube
v 0.010000 -0.010000 -0.010000
v 0.010000 -0.010000 0.010000
v -0.010000 -0.010000 0.010000
v -0.010000 -0.010000 -0.010000
v 0.010000 0.010000 -0.010000
v 0.010000 0.010000 0.010000
v -0.010000 0.010000 0.010000
v -0.010000 0.010000 -0.010000
vt 0.3756 0.5006
vt 0.6244 0.5006
vt 0.6244 0.7494
vt 0.3756 0.7494
vt 0.3756 0.2519
vt 0.3756 0.0031
vt 0.6244 0.0031
vt 0.6244 0.2519
vt 0.8731 0.7494
vt 0.8731 0.9981
vt 0.6244 0.9981
vt 0.3756 0.9981
vt 0.1269 0.9981
vt 0.1269 0.7494
vn 0.0000 -1.0000 0.0000
vn 0.0000 1.0000 0.0000
vn 1.0000 0.0000 0.0000
vn -0.0000 -0.0000 1.0000
vn -1.0000 -0.0000 -0.0000
vn 0.0000 0.0000 -1.0000
usemtl Material
s off
f 1/1/1 2/2/1 3/3/1 4/4/1
f 5/5/2 8/6/2 7/7/2 6/8/2
f 1/1/3 5/5/3 6/8/3 2/2/3
f 2/9/4 6/10/4 7/11/4 3/3/4
f 3/3/5 7/11/5 8/12/5 4/4/5
f 5/13/6 1/14/6 4/4/6 8/12/6
